<?xml version="1.0" encoding="UTF-8"?>
<svg version="1.1" xmlns="http://www.w3.org/2000/svg" width="123" height="122">
<path d="M0 0 C12.53803803 8.97105041 22.3979986 21.72384107 25.19921875 37.2890625 C25.53492601 41.68738409 25.56938095 46.06690447 25.57421875 50.4765625 C25.59871094 51.63220703 25.62320313 52.78785156 25.6484375 53.97851562 C25.70197715 69.87086693 19.25286818 82.56524709 8.55078125 94.09375 C-4.34973725 106.13709119 -18.3833264 111.46125003 -35.80078125 111.6015625 C-37.55455078 111.64506836 -37.55455078 111.64506836 -39.34375 111.68945312 C-55.3859947 111.80518519 -67.87407082 105.55164284 -79.41796875 94.6953125 C-91.72398374 82.26825474 -98.20454986 68.09438966 -98.17578125 50.6015625 C-98.1744519 49.14834595 -98.1744519 49.14834595 -98.1730957 47.66577148 C-98.04521727 39.89245034 -96.83763374 33.49478419 -93.80078125 26.2890625 C-93.49269531 25.51820312 -93.18460937 24.74734375 -92.8671875 23.953125 C-92.21802666 22.38147245 -91.51790975 20.83088877 -90.80078125 19.2890625 C-90.14078125 19.2890625 -89.48078125 19.2890625 -88.80078125 19.2890625 C-88.58421875 18.3609375 -88.58421875 18.3609375 -88.36328125 17.4140625 C-87.80078125 15.2890625 -87.80078125 15.2890625 -86.80078125 13.2890625 C-86.14078125 13.2890625 -85.48078125 13.2890625 -84.80078125 13.2890625 C-84.57390625 12.5465625 -84.34703125 11.8040625 -84.11328125 11.0390625 C-82.5320224 7.72594871 -80.73238364 6.45286427 -77.80078125 4.2890625 C-76.88425781 3.33193359 -76.88425781 3.33193359 -75.94921875 2.35546875 C-55.95471072 -16.87561261 -21.18110747 -14.56757209 0 0 Z " fill="#6B973D" transform="translate(97.80078125,10.7109375)"/>
<path d="M0 0 C10.33501214 8.84856534 19.45462468 21.88939281 21.12890625 35.77734375 C21.34433225 41.10981891 21.24542112 46.44355172 21.12890625 51.77734375 C20.13890625 52.27234375 20.13890625 52.27234375 19.12890625 52.77734375 C18.95875 51.59398437 18.78859375 50.410625 18.61328125 49.19140625 C15.88729782 31.02138967 9.95538639 16.77124109 -5.234375 5.4921875 C-18.54175482 -3.16253804 -32.00042128 -6.30931841 -47.73828125 -3.7578125 C-59.92848024 -0.46684824 -71.43240172 6.88419245 -78.18359375 17.65234375 C-85.81339636 31.40718235 -87.86789665 44.22840473 -83.90234375 59.61328125 C-79.53804558 73.00374154 -70.89675652 82.67327535 -58.66796875 89.40234375 C-45.92174246 95.66864494 -31.4069636 95.35449055 -18.0625 91.04296875 C-13.26258411 89.13945253 -9.06732115 86.77357087 -4.87109375 83.77734375 C-4.236875 83.33777344 -3.60265625 82.89820312 -2.94921875 82.4453125 C5.08559064 76.27699644 10.36970523 66.67284946 12.12890625 56.77734375 C13.50056047 45.97556675 9.58664572 37.20828139 3.12890625 28.77734375 C3.12890625 28.11734375 3.12890625 27.45734375 3.12890625 26.77734375 C1.64390625 26.28234375 1.64390625 26.28234375 0.12890625 25.77734375 C0.28939453 26.82921875 0.28939453 26.82921875 0.453125 27.90234375 C1.2530268 34.2327494 1.45022422 39.17818701 -1.87109375 44.77734375 C-5.76359253 49.36849615 -8.81070803 51.4782555 -14.74609375 52.33984375 C-24.67980557 52.11110696 -34.42945564 44.51164719 -42.4921875 39.2890625 C-49.11521157 35.08034277 -55.01125791 33.75805668 -62.87109375 34.77734375 C-68.40319007 36.5453333 -72.60528676 39.93811746 -76.87109375 43.77734375 C-77.77344124 33.62593446 -72.79974974 23.78239538 -66.87109375 15.77734375 C-59.64195984 7.94828171 -50.76384651 3.52687135 -40.15625 2.51953125 C-28.62581725 2.06498068 -17.77763006 5.29769439 -8.87109375 12.77734375 C-8.87109375 13.10734375 -8.87109375 13.43734375 -8.87109375 13.77734375 C-9.49153564 13.8023999 -10.11197754 13.82745605 -10.7512207 13.85327148 C-13.56221772 13.96931096 -16.37288616 14.09200134 -19.18359375 14.21484375 C-20.16005859 14.25416016 -21.13652344 14.29347656 -22.14257812 14.33398438 C-23.08037109 14.37587891 -24.01816406 14.41777344 -24.984375 14.4609375 C-26.28048706 14.51592407 -26.28048706 14.51592407 -27.6027832 14.57202148 C-30.03587635 14.70481729 -30.03587635 14.70481729 -32.87109375 15.77734375 C-31.94997803 15.7913623 -31.94997803 15.7913623 -31.01025391 15.80566406 C-28.17144942 15.86004116 -25.33417643 15.94354927 -22.49609375 16.02734375 C-21.53058594 16.04152344 -20.56507812 16.05570313 -19.5703125 16.0703125 C-8.5592765 16.43981035 -0.99569596 19.80329414 6.93359375 27.421875 C14.63686427 35.68712789 17.80916312 45.3677741 17.4765625 56.6328125 C16.0117735 69.88174675 10.15326859 81.09113352 0.0234375 89.671875 C-13.94643292 99.83349464 -29.84657061 103.62553672 -46.89453125 101.37890625 C-62.09843147 98.2402995 -75.73250594 89.33644676 -84.2734375 76.4375 C-92.4857567 62.76368735 -96.18777383 47.53122461 -92.74609375 31.77734375 C-89.56555044 20.49819478 -84.1784609 11.97071616 -75.87109375 3.77734375 C-75.23300781 3.12894531 -74.59492187 2.48054688 -73.9375 1.8125 C-53.76597757 -17.35254314 -21.33673461 -16.51782584 0 0 Z " fill="#F8FBF4" transform="translate(97.87109375,16.22265625)"/>
<path d="M0 0 C12.53803803 8.97105041 22.3979986 21.72384107 25.19921875 37.2890625 C25.53492601 41.68738409 25.56938095 46.06690447 25.57421875 50.4765625 C25.59871094 51.63220703 25.62320313 52.78785156 25.6484375 53.97851562 C25.70197715 69.87086693 19.25286818 82.56524709 8.55078125 94.09375 C-4.34973725 106.13709119 -18.3833264 111.46125003 -35.80078125 111.6015625 C-37.55455078 111.64506836 -37.55455078 111.64506836 -39.34375 111.68945312 C-55.3859947 111.80518519 -67.87407082 105.55164284 -79.41796875 94.6953125 C-91.72398374 82.26825474 -98.20454986 68.09438966 -98.17578125 50.6015625 C-98.1744519 49.14834595 -98.1744519 49.14834595 -98.1730957 47.66577148 C-98.04521727 39.89245034 -96.83763374 33.49478419 -93.80078125 26.2890625 C-93.49269531 25.51820312 -93.18460937 24.74734375 -92.8671875 23.953125 C-92.21802666 22.38147245 -91.51790975 20.83088877 -90.80078125 19.2890625 C-90.14078125 19.2890625 -89.48078125 19.2890625 -88.80078125 19.2890625 C-88.58421875 18.3609375 -88.58421875 18.3609375 -88.36328125 17.4140625 C-87.80078125 15.2890625 -87.80078125 15.2890625 -86.80078125 13.2890625 C-86.14078125 13.2890625 -85.48078125 13.2890625 -84.80078125 13.2890625 C-84.57390625 12.5465625 -84.34703125 11.8040625 -84.11328125 11.0390625 C-82.5320224 7.72594871 -80.73238364 6.45286427 -77.80078125 4.2890625 C-76.88425781 3.33193359 -76.88425781 3.33193359 -75.94921875 2.35546875 C-55.95471072 -16.87561261 -21.18110747 -14.56757209 0 0 Z M-73.80078125 7.2890625 C-74.57421875 7.9696875 -75.34765625 8.6503125 -76.14453125 9.3515625 C-86.15385663 18.69359952 -92.75818406 32.12814501 -94.0390625 45.83984375 C-94.46905035 61.83991778 -89.23332511 76.79060245 -79.05078125 89.1640625 C-68.2600245 100.5161881 -52.74067994 107.12042635 -37.23828125 107.6640625 C-21.088602 107.38501837 -6.78731518 101.88125007 4.9765625 90.6953125 C14.54130221 80.34051521 17.70258055 67.07077244 18.19921875 53.2890625 C18.69421875 55.7640625 18.69421875 55.7640625 19.19921875 58.2890625 C19.85921875 57.9590625 20.51921875 57.6290625 21.19921875 57.2890625 C22.01184607 39.70471026 18.23977393 25.18152288 6.51171875 11.5390625 C-3.96881407 0.52428962 -17.78611938 -5.99983544 -32.96875 -6.8984375 C-48.47173721 -7.1892321 -62.11859255 -3.20797662 -73.80078125 7.2890625 Z " fill="#608936" transform="translate(97.80078125,10.7109375)"/>
<path d="M0 0 C1.98 0 3.96 0 6 0 C6 3.3 6 6.6 6 10 C6.680625 9.649375 7.36125 9.29875 8.0625 8.9375 C11.87098276 7.72202678 14.14507106 7.96742975 18 9 C20.58297781 11.18991597 22.48415844 12.96831688 24 16 C24.40282133 21.23667727 23.83087029 24.55148954 21 29 C19.16344695 30.95133762 17.76761301 31.90517262 15.08300781 32.23681641 C12.79596309 32.29539328 10.53696862 32.26088909 8.25 32.1875 C5.5275 32.125625 2.805 32.06375 0 32 C0 21.44 0 10.88 0 0 Z " fill="#F4FAF0" transform="translate(27,62)"/>
<path d="M0 0 C3.54679179 2.15891674 5.55536414 4.13043967 7 8 C7.13958857 10.62426505 7.18931369 13.13292747 7.125 15.75 C7.11597656 16.44738281 7.10695313 17.14476563 7.09765625 17.86328125 C7.07419888 19.57566958 7.03833104 21.28788004 7 23 C5.02 23 3.04 23 1 23 C0.67 17.39 0.34 11.78 0 6 C-1.98 6.33 -3.96 6.66 -6 7 C-7.4807848 9.9615696 -7.35314037 12.83506295 -7.5625 16.125 C-7.64628906 17.40632813 -7.73007813 18.68765625 -7.81640625 20.0078125 C-7.90728516 21.48894531 -7.90728516 21.48894531 -8 23 C-9.98 23 -11.96 23 -14 23 C-14.0816082 20.62429457 -14.14077222 18.25144159 -14.1875 15.875 C-14.22520508 14.87726563 -14.22520508 14.87726563 -14.26367188 13.859375 C-14.3332236 9.12985758 -13.53781286 5.98714654 -11 2 C-7.3078813 -0.46141247 -4.28645195 -0.68650207 0 0 Z " fill="#F2F8ED" transform="translate(88,71)"/>
<path d="M0 0 C1.65 0 3.3 0 5 0 C5.04898438 0.89203125 5.09796875 1.7840625 5.1484375 2.703125 C5.22320312 3.87359375 5.29796875 5.0440625 5.375 6.25 C5.47941406 7.99023438 5.47941406 7.99023438 5.5859375 9.765625 C5.96248308 12.70694334 6.4774123 14.49949011 8 17 C9.97536745 16.65213292 9.97536745 16.65213292 12 16 C13.4807848 13.0384304 13.35314037 10.16493705 13.5625 6.875 C13.64628906 5.59367187 13.73007813 4.31234375 13.81640625 2.9921875 C13.87699219 2.00476563 13.93757813 1.01734375 14 0 C15.98 0 17.96 0 20 0 C20.56862745 15.18445897 20.56862745 15.18445897 17 21 C12.78225307 23.81183128 8.95431867 23.80406155 4 23 C0.89066834 20.26985513 -0.21212501 17.96882824 -1 14 C-1.28903059 9.24799701 -1.19494132 4.63039762 0 0 Z " fill="#F2F8ED" transform="translate(53,71)"/>
<path d="M0 0 C1.875 1.125 1.875 1.125 3 3 C3.42454541 6.32560568 3.31414524 8.33680449 1.875 11.375 C0 13 0 13 -3 13.4375 C-6 13 -6 13 -7.8125 11.875 C-9.51914046 9.18030454 -9.93498241 7.18586196 -10 4 C-7.28932246 -0.12022986 -4.78178464 -0.71218069 0 0 Z " fill="#6D9940" transform="translate(42,76)"/>
<path d="M0 0 C2 1 2 1 2.61889648 2.81933594 C3.22371138 6.28007049 3.10270093 9.74942684 3.0625 13.25 C3.05798828 13.99507812 3.05347656 14.74015625 3.04882812 15.5078125 C3.03709246 17.3385764 3.0191585 19.16929873 3 21 C2.34 21.33 1.68 21.66 1 22 C0.66131223 19.79248152 0.32928311 17.58394089 0 15.375 C-0.185625 14.14523438 -0.37125 12.91546875 -0.5625 11.6484375 C-1.58031088 3.16062176 -1.58031088 3.16062176 0 0 Z " fill="#E5EDDB" transform="translate(116,47)"/>
<path d="M0 0 C0.125 2.875 0.125 2.875 0 6 C-2 8 -2 8 -5.125 8.125 C-6.548125 8.063125 -6.548125 8.063125 -8 8 C-7.65978036 4.82461668 -6.97533396 3.97723135 -4.5625 1.75 C-2 0 -2 0 0 0 Z " fill="#EEF6E5" transform="translate(106,70)"/>
<path d="M0 0 C-0.34021964 3.17538332 -1.02466604 4.02276865 -3.4375 6.25 C-6 8 -6 8 -8 8 C-7.74438677 5.6568787 -7.40729228 3.32156597 -7 1 C-4.53721199 -0.231394 -2.7204945 -0.07159196 0 0 Z " fill="#F0F7E6" transform="translate(103,66)"/>
<path d="M0 0 C1.12438477 0.14985352 1.12438477 0.14985352 2.27148438 0.30273438 C4.11931482 0.54989641 5.9660266 0.80539611 7.8125 1.0625 C7.8125 1.3925 7.8125 1.7225 7.8125 2.0625 C1.2125 2.0625 -5.3875 2.0625 -12.1875 2.0625 C-9.84131593 -2.62986814 -4.32412154 -0.60802058 0 0 Z " fill="#86AA60" transform="translate(76.1875,30.9375)"/>
<path d="M0 0 C0.66 0.33 1.32 0.66 2 1 C0.38113585 2.67262717 -1.2452729 4.33795537 -2.875 6 C-3.77992187 6.928125 -4.68484375 7.85625 -5.6171875 8.8125 C-8 11 -8 11 -10 11 C-7.99155908 6.07019047 -4.35894926 2.90596617 0 0 Z " fill="#406120" transform="translate(24,11)"/>
</svg>
